<svg xmlns="http://www.w3.org/2000/svg" viewBox="0 0 24 24" fill="#e1306c"><path d="M12 2.163c3.204 0 3.584.012 4.85.07 3.252.148 4.771 1.691 4.919 4.919.058 1.265.07 1.646.07 4.85s-.012 3.584-.07 4.85c-.149 3.225-1.691 4.772-4.919 4.919-1.266.058-1.646.07-4.85.07s-3.584-.012-4.85-.07c-3.225-.148-4.772-1.691-4.919-4.919-.058-1.265-.07-1.646-.07-4.85s.012-3.584.07-4.85c.148-3.227 1.691-4.773 4.919-4.919 1.266-.058 1.646-.07 4.85-.07zm0 2.163c-3.204 0-3.584.012-4.85.07-2.704.123-3.946 1.403-4.07 4.07-.058 1.265-.07 1.646-.07 4.85s.012 3.584.07 4.85c.124 2.667 1.366 3.947 4.07 4.07 1.266.058 1.646.07 4.85.07s3.584-.012 4.85-.07c2.704-.123 3.946-1.403 4.07-4.07.058-1.265.07-1.646.07-4.85s-.012-3.584-.07-4.85c-.124-2.667-1.366-3.947-4.07-4.07-1.266-.058-1.646-.07-4.85-.07zm0 3.629c-2.343 0-4.242 1.9-4.242 4.242s1.9 4.242 4.242 4.242 4.242-1.9 4.242-4.242-1.9-4.242-4.242-4.242zm0 2.163c1.173 0 2.079.906 2.079 2.079s-.906 2.079-2.079 2.079-2.079-.906-2.079-2.079.906-2.079 2.079-2.079zm5.325-4.61c-.581 0-1.052.471-1.052 1.052s.471 1.052 1.052 1.052 1.052-.471 1.052-1.052-.471-1.052-1.052-1.052z"/></svg>