<svg xmlns="http://www.w3.org/2000/svg" viewBox="0 0 24 24" fill="#1da1f2"><path d="M24 4.557c-.883.392-1.832.656-2.828.775 1.017-.609 1.798-1.574 2.165-2.724-.951.564-2.005.974-3.127 1.195-.897-.957-2.178-1.555-3.594-1.555-3.179 0-5.515 2.966-4.794 6.045-4.091-.205-7.719-2.165-10.148-5.144-1.29 2.213-.669 5.108 1.523 6.574-.806-.026-1.566-.247-2.229-.616-.054 2.281 1.581 4.415 3.949 4.89-.693.188-1.452.232-2.224.084.626 1.956 2.444 3.379 4.6 3.419-2.07.16-4.14-.692-5.57-2.015 2.176 1.392 4.768 2.209 7.559 2.209 9.105 0 14.01-7.503 14.01-14.01 0-.213-.005-.426-.014-.637.96-.695 1.795-1.562 2.45-2.55z"/></svg>